<svg width="230" height="761" viewBox="0 0 230 761" fill="none" xmlns="http://www.w3.org/2000/svg">
<path d="M5.43475 393.546L365.776 754.542C371.947 760.724 381.953 760.724 388.124 754.542L748.466 393.546C754.636 387.364 754.636 377.339 748.466 371.157L388.124 10.1614C381.953 3.97941 371.947 3.97941 365.776 10.1614L5.43475 371.157C-0.736023 377.339 -0.736023 387.364 5.43475 393.546Z" fill="white"/>
<path d="M8.44739 391.613L373.211 757.039C378.163 762 386.196 762 391.148 757.039L755.889 391.613C760.842 386.651 760.842 378.605 755.889 373.643L391.137 8.22838C386.184 3.26697 378.152 3.26697 373.2 8.22838L8.4361 373.654C3.48364 378.616 3.48364 386.663 8.4361 391.624L8.44739 391.613Z" fill="url(#paint0_linear_246_423)"/>
<path d="M116.407 389.816L476.749 750.812C482.92 756.994 492.926 756.994 499.097 750.812L859.438 389.816C865.609 383.634 865.609 373.61 859.438 367.428L499.097 6.43189C492.926 0.249916 482.92 0.249916 476.749 6.43189L116.407 367.428C110.237 373.61 110.237 383.634 116.407 389.816Z" fill="white"/>
<path d="M119.409 387.883L484.172 753.309C489.125 758.271 497.157 758.271 502.109 753.309L866.862 387.883C871.814 382.922 871.814 374.875 866.862 369.914L502.098 4.49889C497.146 -0.462519 489.114 -0.462519 484.161 4.49889L119.397 369.925C114.445 374.886 114.445 382.933 119.397 387.895L119.409 387.883Z" fill="url(#paint1_linear_246_423)"/>
<defs>
<linearGradient id="paint0_linear_246_423" x1="61.1528" y1="276.664" x2="691.878" y2="484.103" gradientUnits="userSpaceOnUse">
<stop stop-color="#F5FCFE"/>
<stop offset="1" stop-color="#AED1FC"/>
</linearGradient>
<linearGradient id="paint1_linear_246_423" x1="172.114" y1="272.935" x2="802.851" y2="480.385" gradientUnits="userSpaceOnUse">
<stop stop-color="#F5FCFE"/>
<stop offset="1" stop-color="#F5FCFE"/>
</linearGradient>
</defs>
</svg>
