<svg width="13" height="68" viewBox="0 0 13 68" fill="none" xmlns="http://www.w3.org/2000/svg">
<path d="M6.00233 67.5934C4.31987 67.5934 2.88745 66.9798 1.68244 65.9116C0.591114 64.6843 1.2265e-06 63.2297 1.2265e-06 61.6615C1.2265e-06 60.0933 0.113689 60.0933 0.363785 59.2296C0.72756 58.5024 1.20498 57.9114 1.68244 57.2978C3.95604 55.0023 7.93485 55.0023 10.2312 57.2978C10.8451 57.9114 11.1861 58.5024 11.5499 59.2296C11.8 60.0706 12.0273 60.8206 12.0273 61.6615C12.0273 62.5024 11.2998 64.6843 10.2312 65.9116C9.64005 66.5252 9.02616 66.8888 8.29861 67.2297C7.57106 67.4797 6.72983 67.5934 6.02502 67.5934H6.00233Z" fill="#C0CCDC"/>
<path d="M6.00118 51.8648C7.0925 51.8648 8.00195 50.9784 8.00195 49.8648C8.00195 48.7511 7.06977 47.8648 6.00118 47.8648C4.88712 47.8648 4.0004 48.7511 4.0004 49.8648C4.0004 50.9784 4.88712 51.8648 6.00118 51.8648ZM6.00118 40.1147C7.0925 40.1147 8.00195 39.2283 8.00195 38.1146C8.00195 37.0237 7.06977 36.1146 6.00118 36.1146C4.88712 36.1146 4.0004 37.0237 4.0004 38.1146C4.0004 39.2283 4.88712 40.1147 6.00118 40.1147ZM6.00118 28.41C7.0925 28.41 8.00195 27.5009 8.00195 26.41C8.00195 25.2963 7.06977 24.4099 6.00118 24.4099C4.88712 24.4099 4.0004 25.2963 4.0004 26.41C4.0004 27.5236 4.88712 28.41 6.00118 28.41ZM6.00118 16.6598C7.0925 16.6598 8.00195 15.7735 8.00195 14.6598C8.00195 13.5689 7.06977 12.6598 6.00118 12.6598C4.88712 12.6598 4.0004 13.5916 4.0004 14.6598C4.0004 15.728 4.88712 16.6598 6.00118 16.6598ZM6.00118 4.95512C7.0925 4.95512 8.00195 4.04601 8.00195 2.95508C8.00195 1.84143 7.06977 0.955078 6.00118 0.955078C4.88712 0.955078 4.0004 1.84143 4.0004 2.95508C4.0004 4.06873 4.88712 4.95512 6.00118 4.95512Z" fill="#C0CCDC"/>
</svg>
