<svg width="175" height="324" viewBox="0 0 175 324" fill="none" xmlns="http://www.w3.org/2000/svg">
<g opacity="0.4" clip-path="url(#clip0_246_267)">
<path d="M157.994 168.496L-25.2655 351.491C-28.4038 354.625 -33.4927 354.625 -36.631 351.491L-219.89 168.496C-223.029 165.362 -223.029 160.28 -219.89 157.146L-36.631 -25.8489C-33.4928 -28.9827 -28.4038 -28.9827 -25.2655 -25.8489L157.994 157.146C161.132 160.28 161.132 165.362 157.994 168.496Z" fill="white"/>
<path d="M156.462 167.516L-29.0465 352.757C-31.5651 355.272 -35.6501 355.272 -38.1687 352.757L-223.666 167.516C-226.184 165.001 -226.184 160.922 -223.666 158.407L-38.163 -26.8286C-35.6444 -29.3436 -31.5594 -29.3436 -29.0408 -26.8286L156.468 158.413C158.986 160.928 158.986 165.007 156.468 167.522L156.462 167.516Z" fill="url(#paint0_linear_246_267)"/>
<path d="M101.556 166.605L-81.703 349.6C-84.8413 352.734 -89.9302 352.734 -93.0685 349.6L-276.328 166.605C-279.466 163.471 -279.466 158.39 -276.328 155.256L-93.0685 -27.7395C-89.9302 -30.8733 -84.8413 -30.8733 -81.703 -27.7395L101.556 155.256C104.695 158.39 104.695 163.471 101.556 166.605Z" fill="white"/>
<path d="M100.03 165.625L-85.4783 350.866C-87.9969 353.381 -92.0819 353.381 -94.6005 350.866L-280.103 165.625C-282.622 163.11 -282.622 159.031 -280.103 156.516L-94.5948 -28.7192C-92.0761 -31.2342 -87.9912 -31.2342 -85.4726 -28.7192L100.036 156.522C102.554 159.037 102.554 163.116 100.036 165.631L100.03 165.625Z" fill="url(#paint1_linear_246_267)"/>
</g>
<defs>
<linearGradient id="paint0_linear_246_267" x1="129.657" y1="109.246" x2="-190.907" y2="215.02" gradientUnits="userSpaceOnUse">
<stop stop-color="#FEFEFE"/>
<stop offset="1" stop-color="#C4C9CF"/>
</linearGradient>
<linearGradient id="paint1_linear_246_267" x1="73.2256" y1="107.356" x2="-247.345" y2="213.136" gradientUnits="userSpaceOnUse">
<stop stop-color="#FEFEFE"/>
<stop offset="1" stop-color="#C4C9CF"/>
</linearGradient>
<clipPath id="clip0_246_267">
<rect width="178" height="403" fill="white" transform="translate(-3 -31)"/>
</clipPath>
</defs>
</svg>
