<svg width="69" height="69" viewBox="0 0 69 69" fill="none" xmlns="http://www.w3.org/2000/svg">
<g filter="url(#filter0_d_246_446)">
<circle cx="34.5" cy="30.5" r="30.5" fill="#F7F7F9"/>
</g>
<mask id="mask0_246_446" style="mask-type:alpha" maskUnits="userSpaceOnUse" x="11" y="7" width="47" height="47">
<rect x="11" y="7" width="47" height="47" fill="#53B6DA"/>
</mask>
<g mask="url(#mask0_246_446)">
<path d="M27.3527 36.111C27.8599 37.5647 28.5886 38.7196 29.5389 39.5757C30.4892 40.4319 31.6811 41.0269 33.1147 41.3608V42.4944C33.1147 42.8509 33.2484 43.1629 33.5158 43.4303C33.7832 43.6976 34.0951 43.8313 34.4516 43.8313C34.8082 43.8313 35.1201 43.6976 35.3875 43.4303C35.6549 43.1629 35.7886 42.8509 35.7886 42.4944V41.4588C37.3075 41.2529 38.6827 40.6823 39.9142 39.7471C41.1457 38.8119 41.7615 37.394 41.7615 35.4934C41.7615 34.1225 41.3573 32.9099 40.5488 31.8554C39.7404 30.8009 38.1612 29.8494 35.8112 29.0008C33.7524 28.2978 32.3853 27.6889 31.7099 27.1742C31.0346 26.6595 30.6969 25.9402 30.6969 25.0163C30.6969 24.0924 31.0427 23.3417 31.7345 22.7642C32.4261 22.1867 33.3808 21.898 34.5985 21.898C35.6179 21.898 36.4401 22.1384 37.0653 22.6192C37.6905 23.1 38.1712 23.7032 38.5076 24.4287L40.9254 23.4572C40.5161 22.4152 39.8489 21.5233 38.9237 20.7814C37.9986 20.0395 36.9861 19.6259 35.8865 19.5405V18.5048C35.8865 18.1483 35.7528 17.8364 35.4854 17.569C35.218 17.3016 34.9061 17.1679 34.5496 17.1679C34.193 17.1679 33.8811 17.3016 33.6137 17.569C33.3463 17.8364 33.2127 18.1483 33.2127 18.5048V19.5405C31.543 19.8619 30.2607 20.5391 29.3657 21.5723C28.4706 22.6054 28.0231 23.7534 28.0231 25.0163C28.0231 26.4876 28.4687 27.6713 29.36 28.5676C30.2513 29.464 31.7037 30.2737 33.7173 30.9968C35.7987 31.76 37.2203 32.4448 37.9823 33.0511C38.7443 33.6574 39.1253 34.4715 39.1253 35.4934C39.1253 36.7211 38.6822 37.613 37.7959 38.1691C36.9096 38.7253 35.9122 39.0033 34.8038 39.0033C33.6953 39.0033 32.7061 38.6719 31.8361 38.0091C30.9662 37.3463 30.2977 36.3772 29.8307 35.1018L27.3527 36.111ZM34.5039 49.1037C31.9308 49.1037 29.5122 48.6155 27.2481 47.6389C24.9839 46.6624 23.0145 45.3371 21.3397 43.663C19.6648 41.9889 18.3389 40.0203 17.362 37.7572C16.385 35.4941 15.8965 33.076 15.8965 30.5029C15.8965 27.9298 16.3848 25.5112 17.3613 23.2471C18.3379 20.983 19.6632 19.0135 21.3372 17.3387C23.0113 15.6639 24.9799 14.338 27.243 13.361C29.5061 12.384 31.9242 11.8955 34.4973 11.8955C37.0704 11.8955 39.4891 12.3838 41.7531 13.3603C44.0173 14.3369 45.9867 15.6622 47.6615 17.3362C49.3364 19.0103 50.6623 20.9789 51.6393 23.242C52.6162 25.5051 53.1047 27.9232 53.1047 30.4963C53.1047 33.0695 52.6164 35.4881 51.6399 37.7522C50.6633 40.0163 49.338 41.9858 47.664 43.6606C45.9899 45.3354 44.0213 46.6613 41.7582 47.6383C39.4951 48.6153 37.077 49.1037 34.5039 49.1037ZM34.5006 46.1663C38.8742 46.1663 42.5787 44.6486 45.6141 41.6132C48.6496 38.5778 50.1673 34.8732 50.1673 30.4996C50.1673 26.126 48.6496 22.4215 45.6141 19.3861C42.5787 16.3507 38.8742 14.833 34.5006 14.833C30.127 14.833 26.4225 16.3507 23.3871 19.3861C20.3516 22.4215 18.8339 26.126 18.8339 30.4996C18.8339 34.8732 20.3516 38.5778 23.3871 41.6132C26.4225 44.6486 30.127 46.1663 34.5006 46.1663Z" fill="#53B6DA"/>
</g>
<defs>
<filter id="filter0_d_246_446" x="0" y="0" width="69" height="69" filterUnits="userSpaceOnUse" color-interpolation-filters="sRGB">
<feFlood flood-opacity="0" result="BackgroundImageFix"/>
<feColorMatrix in="SourceAlpha" type="matrix" values="0 0 0 0 0 0 0 0 0 0 0 0 0 0 0 0 0 0 127 0" result="hardAlpha"/>
<feOffset dy="4"/>
<feGaussianBlur stdDeviation="2"/>
<feComposite in2="hardAlpha" operator="out"/>
<feColorMatrix type="matrix" values="0 0 0 0 0 0 0 0 0 0 0 0 0 0 0 0 0 0 0.25 0"/>
<feBlend mode="normal" in2="BackgroundImageFix" result="effect1_dropShadow_246_446"/>
<feBlend mode="normal" in="SourceGraphic" in2="effect1_dropShadow_246_446" result="shape"/>
</filter>
</defs>
</svg>
