<svg width="69" height="69" viewBox="0 0 69 69" fill="none" xmlns="http://www.w3.org/2000/svg">
<g filter="url(#filter0_d_329_12)">
<circle cx="34.5" cy="30.5" r="30.5" fill="#F7F7F9"/>
</g>
<mask id="mask0_329_12" style="mask-type:alpha" maskUnits="userSpaceOnUse" x="11" y="7" width="47" height="47">
<rect x="11" y="7" width="47" height="47" fill="#53B6DA"/>
</mask>
<g mask="url(#mask0_329_12)">
<path d="M26.7789 41.2709C25.7897 41.2709 24.9524 40.9282 24.267 40.2428C23.5816 39.5574 23.2389 38.72 23.2389 37.7308V15.4361C23.2389 14.4469 23.5816 13.6095 24.267 12.9241C24.9524 12.2387 25.7897 11.896 26.7789 11.896H49.0737C50.0629 11.896 50.9002 12.2387 51.5856 12.9241C52.271 13.6095 52.6137 14.4469 52.6137 15.4361V37.7308C52.6137 38.72 52.271 39.5574 51.5856 40.2428C50.9002 40.9282 50.0629 41.2709 49.0737 41.2709H26.7789ZM26.7789 38.3334H49.0737C49.2243 38.3334 49.3624 38.2707 49.488 38.1452C49.6135 38.0196 49.6763 37.8815 49.6763 37.7308V15.4361C49.6763 15.2854 49.6135 15.1473 49.488 15.0217C49.3624 14.8962 49.2243 14.8334 49.0737 14.8334H26.7789C26.6283 14.8334 26.4902 14.8962 26.3646 15.0217C26.2391 15.1473 26.1763 15.2854 26.1763 15.4361V37.7308C26.1763 37.8815 26.2391 38.0196 26.3646 38.1452C26.4902 38.2707 26.6283 38.3334 26.7789 38.3334ZM19.9248 48.125C18.9356 48.125 18.0983 47.7823 17.4129 47.0968C16.7275 46.4114 16.3848 45.5741 16.3848 44.5849V20.8214C16.3848 20.4047 16.5254 20.0557 16.8065 19.7745C17.0878 19.4933 17.4367 19.3527 17.8535 19.3527C18.2702 19.3527 18.6192 19.4933 18.9004 19.7745C19.1816 20.0557 19.3222 20.4047 19.3222 20.8214V44.5849C19.3222 44.7356 19.385 44.8737 19.5105 44.9992C19.6361 45.1248 19.7742 45.1876 19.9248 45.1876H43.6883C44.1051 45.1876 44.454 45.3282 44.7353 45.6093C45.0164 45.8905 45.157 46.2395 45.157 46.6563C45.157 47.073 45.0164 47.422 44.7353 47.7032C44.454 47.9844 44.1051 48.125 43.6883 48.125H19.9248ZM34.8457 31.709L37.9263 28.6283L41.0257 31.7278C41.2969 31.999 41.6377 32.1314 42.0482 32.1251C42.4587 32.1188 42.7995 31.9801 43.0707 31.709C43.3418 31.4378 43.4774 31.097 43.4774 30.6865C43.4774 30.276 43.3418 29.9352 43.0707 29.6641L39.9712 26.5834L43.0707 23.484C43.3418 23.2128 43.4774 22.872 43.4774 22.4615C43.4774 22.051 43.3418 21.7102 43.0707 21.4391C42.7995 21.1679 42.4587 21.0324 42.0482 21.0324C41.6377 21.0324 41.2969 21.1679 41.0257 21.4391L37.9263 24.5386L34.8268 21.4391C34.5557 21.1679 34.218 21.0324 33.8138 21.0324C33.4096 21.0324 33.0719 21.1679 32.8007 21.4391C32.5296 21.7102 32.394 22.051 32.394 22.4615C32.394 22.872 32.5296 23.2128 32.8007 23.484L35.8814 26.5834L32.7819 29.6829C32.5108 29.9541 32.3783 30.2917 32.3846 30.6959C32.3909 31.1001 32.5296 31.4378 32.8007 31.709C33.0719 31.9801 33.4127 32.1157 33.8232 32.1157C34.2337 32.1157 34.5745 31.9801 34.8457 31.709Z" fill="#53B6DA"/>
</g>
<defs>
<filter id="filter0_d_329_12" x="0" y="0" width="69" height="69" filterUnits="userSpaceOnUse" color-interpolation-filters="sRGB">
<feFlood flood-opacity="0" result="BackgroundImageFix"/>
<feColorMatrix in="SourceAlpha" type="matrix" values="0 0 0 0 0 0 0 0 0 0 0 0 0 0 0 0 0 0 127 0" result="hardAlpha"/>
<feOffset dy="4"/>
<feGaussianBlur stdDeviation="2"/>
<feComposite in2="hardAlpha" operator="out"/>
<feColorMatrix type="matrix" values="0 0 0 0 0 0 0 0 0 0 0 0 0 0 0 0 0 0 0.25 0"/>
<feBlend mode="normal" in2="BackgroundImageFix" result="effect1_dropShadow_329_12"/>
<feBlend mode="normal" in="SourceGraphic" in2="effect1_dropShadow_329_12" result="shape"/>
</filter>
</defs>
</svg>
