<svg width="920" height="44" viewBox="0 0 920 44" fill="none" xmlns="http://www.w3.org/2000/svg">
<g clip-path="url(#clip0_246_476)">
<path d="M516.24 21.9378H22.836C20.7583 21.9378 19.0693 19.423 19.0693 16.3293C19.0693 13.2356 20.7583 10.7207 22.836 10.7207H516.24C518.318 10.7207 520.007 13.2356 520.007 16.3293C520.007 19.423 518.318 21.9378 516.24 21.9378Z" fill="#53B6DA"/>
<path d="M914.416 22H516.597C514.065 22 512.007 19.5338 512.007 16.5C512.007 13.4662 514.065 11 516.597 11H914.416C916.948 11 919.007 13.4662 919.007 16.5C919.007 19.5338 916.948 22 914.416 22Z" fill="#E7EBF1"/>
<path d="M267.453 32.893C276.536 32.893 283.9 25.5296 283.9 16.4465C283.9 7.36334 276.536 0 267.453 0C258.37 0 251.007 7.36334 251.007 16.4465C251.007 25.5296 258.37 32.893 267.453 32.893Z" fill="#53B6DA"/>
<path d="M271.406 16.4465C271.406 14.251 269.629 12.4746 267.434 12.4746C265.238 12.4746 263.462 14.251 263.462 16.4465C263.462 18.642 265.238 20.4184 267.434 20.4184C269.629 20.4184 271.406 18.642 271.406 16.4465Z" fill="white"/>
<path d="M19.4533 32.893C28.5365 32.893 35.8998 25.5296 35.8998 16.4465C35.8998 7.36334 28.5365 0 19.4533 0C10.3702 0 3.00684 7.36334 3.00684 16.4465C3.00684 25.5296 10.3702 32.893 19.4533 32.893Z" fill="#53B6DA"/>
<path d="M23.4057 16.4465C23.4057 14.251 21.6293 12.4746 19.4338 12.4746C17.2383 12.4746 15.4619 14.251 15.4619 16.4465C15.4619 18.642 17.2383 20.4184 19.4338 20.4184C21.6293 20.4184 23.4057 18.642 23.4057 16.4465Z" fill="white"/>
<path d="M516.086 32.893C525.169 32.893 532.533 25.5296 532.533 16.4465C532.533 7.36334 525.169 0 516.086 0C507.003 0 499.64 7.36334 499.64 16.4465C499.64 25.5296 507.003 32.893 516.086 32.893Z" fill="#53B6DA"/>
<path d="M520.058 16.4465C520.058 14.251 518.282 12.4746 516.086 12.4746C513.891 12.4746 512.114 14.251 512.114 16.4465C512.114 18.642 513.891 20.4184 516.086 20.4184C518.282 20.4184 520.058 18.642 520.058 16.4465Z" fill="white"/>
<path d="M764.721 32.893C773.804 32.893 781.167 25.5296 781.167 16.4465C781.167 7.36334 773.804 0 764.721 0C755.638 0 748.274 7.36334 748.274 16.4465C748.274 25.5296 755.638 32.893 764.721 32.893Z" fill="#E7EBF1"/>
<path d="M768.693 16.4465C768.693 14.251 766.916 12.4746 764.721 12.4746C762.525 12.4746 760.749 14.251 760.749 16.4465C760.749 18.642 762.525 20.4184 764.721 20.4184C766.916 20.4184 768.693 18.642 768.693 16.4465Z" fill="#BABACC"/>
</g>
<defs>
<clipPath id="clip0_246_476">
<rect width="919" height="44" fill="white" transform="translate(0.00683594)"/>
</clipPath>
</defs>
</svg>
