<svg width="69" height="69" viewBox="0 0 69 69" fill="none" xmlns="http://www.w3.org/2000/svg">
    <g filter="url(#filter0_d_246_436)">
        <circle cx="34.5" cy="30.5" r="30.5" fill="#F7F7F9"/>
    </g>
    <mask id="mask0_246_436" style="mask-type:alpha" maskUnits="userSpaceOnUse" x="11" y="7" width="47" height="47">
        <rect x="11" y="7" width="47" height="47" fill="#53B6DA"/>
    </mask>
    <g mask="url(#mask0_246_436)">
        <path d="M41.3021 39.3648L43.3658 37.3011L35.9693 29.9042V20.708H33.0319V31.0947L41.3021 39.3648ZM34.5039 49.1037C31.9308 49.1037 29.5122 48.6155 27.2481 47.6389C24.9839 46.6624 23.0145 45.3371 21.3397 43.663C19.6648 41.9889 18.3389 40.0203 17.362 37.7572C16.385 35.4941 15.8965 33.076 15.8965 30.5029C15.8965 27.9298 16.3848 25.5112 17.3613 23.2471C18.3379 20.983 19.6632 19.0135 21.3372 17.3387C23.0113 15.6639 24.9799 14.338 27.243 13.361C29.5061 12.384 31.9242 11.8955 34.4973 11.8955C37.0704 11.8955 39.4891 12.3838 41.7531 13.3603C44.0173 14.3369 45.9867 15.6622 47.6615 17.3362C49.3364 19.0103 50.6623 20.9789 51.6393 23.242C52.6162 25.5051 53.1047 27.9232 53.1047 30.4963C53.1047 33.0695 52.6164 35.4881 51.6399 37.7522C50.6633 40.0163 49.338 41.9858 47.664 43.6606C45.9899 45.3354 44.0213 46.6613 41.7582 47.6383C39.4951 48.6153 37.077 49.1037 34.5039 49.1037ZM34.5006 46.1663C38.8416 46.1663 42.5379 44.6404 45.5897 41.5887C48.6414 38.537 50.1673 34.8406 50.1673 30.4996C50.1673 26.1587 48.6414 22.4623 45.5897 19.4106C42.5379 16.3588 38.8416 14.833 34.5006 14.833C30.1596 14.833 26.4633 16.3588 23.4115 19.4106C20.3598 22.4623 18.8339 26.1587 18.8339 30.4996C18.8339 34.8406 20.3598 38.537 23.4115 41.5887C26.4633 44.6404 30.1596 46.1663 34.5006 46.1663Z"
              fill="#53B6DA"/>
    </g>
    <defs>
        <filter id="filter0_d_246_436" x="0" y="0" width="69" height="69" filterUnits="userSpaceOnUse"
                color-interpolation-filters="sRGB">
            <feFlood flood-opacity="0" result="BackgroundImageFix"/>
            <feColorMatrix in="SourceAlpha" type="matrix" values="0 0 0 0 0 0 0 0 0 0 0 0 0 0 0 0 0 0 127 0"
                           result="hardAlpha"/>
            <feOffset dy="4"/>
            <feGaussianBlur stdDeviation="2"/>
            <feComposite in2="hardAlpha" operator="out"/>
            <feColorMatrix type="matrix" values="0 0 0 0 0 0 0 0 0 0 0 0 0 0 0 0 0 0 0.25 0"/>
            <feBlend mode="normal" in2="BackgroundImageFix" result="effect1_dropShadow_246_436"/>
            <feBlend mode="normal" in="SourceGraphic" in2="effect1_dropShadow_246_436" result="shape"/>
        </filter>
    </defs>
</svg>
