<svg width="245" height="761" viewBox="0 0 245 761" fill="none" xmlns="http://www.w3.org/2000/svg">
<path d="M239.862 393.546L-120.479 754.542C-126.65 760.724 -136.657 760.724 -142.827 754.542L-503.169 393.546C-509.34 387.364 -509.34 377.339 -503.169 371.157L-142.827 10.1614C-136.657 3.97941 -126.65 3.97941 -120.479 10.1614L239.862 371.157C246.033 377.339 246.033 387.364 239.862 393.546Z" fill="white"/>
<path d="M236.849 391.613L-127.914 757.039C-132.867 762 -140.899 762 -145.851 757.039L-510.592 391.613C-515.545 386.651 -515.545 378.605 -510.592 373.643L-145.84 8.22838C-140.887 3.26697 -132.855 3.26697 -127.903 8.22838L236.861 373.654C241.813 378.616 241.813 386.663 236.861 391.624L236.849 391.613Z" fill="url(#paint0_linear_246_414)"/>
<path d="M128.889 389.816L-231.452 750.812C-237.623 756.994 -247.629 756.994 -253.8 750.812L-614.141 389.816C-620.312 383.634 -620.312 373.61 -614.141 367.428L-253.8 6.43189C-247.629 0.249916 -237.623 0.249916 -231.452 6.43189L128.889 367.428C135.06 373.61 135.06 383.634 128.889 389.816Z" fill="white"/>
<path d="M125.888 387.883L-238.876 753.309C-243.828 758.271 -251.86 758.271 -256.813 753.309L-621.565 387.883C-626.517 382.922 -626.517 374.875 -621.565 369.914L-256.801 4.49889C-251.849 -0.462519 -243.817 -0.462519 -238.864 4.49889L125.899 369.925C130.852 374.886 130.852 382.933 125.899 387.895L125.888 387.883Z" fill="url(#paint1_linear_246_414)"/>
<defs>
<linearGradient id="paint0_linear_246_414" x1="184.144" y1="276.664" x2="-446.581" y2="484.103" gradientUnits="userSpaceOnUse">
<stop stop-color="#F5FCFE"/>
<stop offset="1" stop-color="#9FC4F2"/>
</linearGradient>
<linearGradient id="paint1_linear_246_414" x1="73.1827" y1="272.935" x2="-557.554" y2="480.385" gradientUnits="userSpaceOnUse">
<stop stop-color="#F5FCFE"/>
<stop offset="1" stop-color="#F5FCFE"/>
</linearGradient>
</defs>
</svg>
