<svg width="29" height="29" viewBox="0 0 29 29" fill="none" xmlns="http://www.w3.org/2000/svg">
<mask id="mask0_246_1762" style="mask-type:alpha" maskUnits="userSpaceOnUse" x="0" y="0" width="29" height="29">
<rect y="0.52417" width="28.4262" height="28.4262" fill="#54B7DB"/>
</mask>
<g mask="url(#mask0_246_1762)">
<path d="M11.0119 25.3221L1.15839 15.4868C1.04754 15.3759 0.969351 15.259 0.92381 15.136C0.878249 15.013 0.855469 14.8802 0.855469 14.7374C0.855469 14.5947 0.878249 14.4618 0.92381 14.3388C0.969351 14.2158 1.04755 14.0989 1.15842 13.9881L11.0233 4.12317C11.2465 3.89994 11.5198 3.78833 11.8433 3.78833C12.1667 3.78833 12.4499 3.90981 12.6929 4.15278C12.9282 4.38814 13.0459 4.66526 13.0459 4.98413C13.0459 5.30301 12.9282 5.58014 12.6929 5.81551L3.77093 14.7374L12.7042 23.6708C12.9275 23.894 13.0391 24.1642 13.0391 24.4816C13.0391 24.799 12.9176 25.0791 12.6746 25.3221C12.4393 25.5575 12.1622 25.6751 11.8433 25.6751C11.5244 25.6751 11.2473 25.5575 11.0119 25.3221Z" fill="#54B7DB"/>
</g>
</svg>
