<svg width="67" height="67" viewBox="0 0 67 67" fill="none" xmlns="http://www.w3.org/2000/svg">
<g filter="url(#filter0_d_246_163)">
<circle cx="33.5" cy="29.5" r="29.5" fill="#53B6DA"/>
</g>
<mask id="mask0_246_163" style="mask-type:alpha" maskUnits="userSpaceOnUse" x="17" y="13" width="32" height="32">
<rect x="17.6152" y="13.6152" width="31.0128" height="31.0128" fill="#F2F7FF"/>
</mask>
<g mask="url(#mask0_246_163)">
<path d="M18.9082 39.4594V35.8412C18.9082 35.109 19.0966 34.436 19.4735 33.8222C19.8504 33.2084 20.3512 32.74 20.9757 32.4169C22.311 31.7493 23.6678 31.2485 25.0462 30.9147C26.4245 30.5809 27.8244 30.414 29.2458 30.414C30.6672 30.414 32.0671 30.5809 33.4455 30.9147C34.8238 31.2485 36.1806 31.7493 37.5159 32.4169C38.1405 32.74 38.6412 33.2084 39.0181 33.8222C39.395 34.436 39.5834 35.109 39.5834 35.8412V39.4594H18.9082ZM42.1678 39.4594V35.5828C42.1678 34.6352 41.904 33.7253 41.3763 32.853C40.8487 31.9808 40.1003 31.2324 39.1311 30.6078C40.2295 30.737 41.2633 30.9578 42.2324 31.2701C43.2016 31.5824 44.1061 31.9646 44.9461 32.4169C45.7214 32.8476 46.3136 33.3268 46.7228 33.8545C47.132 34.3821 47.3366 34.9582 47.3366 35.5828V39.4594H42.1678ZM29.2458 29.1218C27.8244 29.1218 26.6076 28.6157 25.5953 27.6035C24.5831 26.5912 24.077 25.3744 24.077 23.953C24.077 22.5316 24.5831 21.3147 25.5953 20.3025C26.6076 19.2903 27.8244 18.7842 29.2458 18.7842C30.6672 18.7842 31.8841 19.2903 32.8963 20.3025C33.9085 21.3147 34.4146 22.5316 34.4146 23.953C34.4146 25.3744 33.9085 26.5912 32.8963 27.6035C31.8841 28.6157 30.6672 29.1218 29.2458 29.1218ZM42.1678 23.953C42.1678 25.3744 41.6617 26.5912 40.6495 27.6035C39.6373 28.6157 38.4204 29.1218 36.999 29.1218C36.7621 29.1218 36.4606 29.0949 36.0945 29.041C35.7284 28.9872 35.4268 28.928 35.1899 28.8633C35.7714 28.1742 36.2183 27.4096 36.5306 26.5697C36.8429 25.7298 36.999 24.8575 36.999 23.953C36.999 23.0484 36.8429 22.1762 36.5306 21.3363C36.2183 20.4963 35.7714 19.7318 35.1899 19.0426C35.4914 18.9349 35.793 18.8649 36.0945 18.8326C36.396 18.8003 36.6975 18.7842 36.999 18.7842C38.4204 18.7842 39.6373 19.2903 40.6495 20.3025C41.6617 21.3147 42.1678 22.5316 42.1678 23.953ZM21.4926 36.875H36.999V35.8412C36.999 35.6043 36.9398 35.389 36.8213 35.1951C36.7029 35.0013 36.5467 34.8505 36.3529 34.7429C35.1899 34.1614 34.0162 33.7253 32.8317 33.4345C31.6472 33.1438 30.4519 32.9984 29.2458 32.9984C28.0398 32.9984 26.8445 33.1438 25.66 33.4345C24.4754 33.7253 23.3017 34.1614 22.1387 34.7429C21.9449 34.8505 21.7887 35.0013 21.6703 35.1951C21.5518 35.389 21.4926 35.6043 21.4926 35.8412V36.875ZM29.2458 26.5374C29.9565 26.5374 30.5649 26.2843 31.071 25.7782C31.5772 25.2721 31.8302 24.6637 31.8302 23.953C31.8302 23.2423 31.5772 22.6339 31.071 22.1277C30.5649 21.6216 29.9565 21.3686 29.2458 21.3686C28.5351 21.3686 27.9267 21.6216 27.4206 22.1277C26.9145 22.6339 26.6614 23.2423 26.6614 23.953C26.6614 24.6637 26.9145 25.2721 27.4206 25.7782C27.9267 26.2843 28.5351 26.5374 29.2458 26.5374Z" fill="#F2F7FF"/>
</g>
<defs>
<filter id="filter0_d_246_163" x="0" y="0" width="67" height="67" filterUnits="userSpaceOnUse" color-interpolation-filters="sRGB">
<feFlood flood-opacity="0" result="BackgroundImageFix"/>
<feColorMatrix in="SourceAlpha" type="matrix" values="0 0 0 0 0 0 0 0 0 0 0 0 0 0 0 0 0 0 127 0" result="hardAlpha"/>
<feOffset dy="4"/>
<feGaussianBlur stdDeviation="2"/>
<feComposite in2="hardAlpha" operator="out"/>
<feColorMatrix type="matrix" values="0 0 0 0 0 0 0 0 0 0 0 0 0 0 0 0 0 0 0.25 0"/>
<feBlend mode="normal" in2="BackgroundImageFix" result="effect1_dropShadow_246_163"/>
<feBlend mode="normal" in="SourceGraphic" in2="effect1_dropShadow_246_163" result="shape"/>
</filter>
</defs>
</svg>
