<svg width="26" height="34" viewBox="0 0 26 34" fill="none" xmlns="http://www.w3.org/2000/svg">
<path d="M13 33.3077L1.51283 24.6923C1.19231 24.4615 0.943375 24.1662 0.766041 23.8061C0.58868 23.4461 0.5 23.0663 0.5 22.6667V3.17958C0.5 2.33769 0.791667 1.62508 1.375 1.04175C1.95833 0.458415 2.67094 0.166748 3.51283 0.166748H22.4871C23.329 0.166748 24.0416 0.458415 24.6249 1.04175C25.2083 1.62508 25.4999 2.33769 25.4999 3.17958V22.6667C25.4999 23.0663 25.4112 23.4461 25.2339 23.8061C25.0565 24.1662 24.8076 24.4615 24.4871 24.6923L13 33.3077ZM13 30.1667L22.7916 22.827C22.8557 22.7735 22.9065 22.7121 22.9439 22.6427C22.9813 22.5732 23 22.4958 23 22.4103V3.17958C23 3.05136 22.9465 2.93382 22.8397 2.82696C22.7328 2.72012 22.6153 2.66671 22.4871 2.66671H3.51283C3.38461 2.66671 3.26707 2.72012 3.16021 2.82696C3.05337 2.93382 2.99996 3.05136 2.99996 3.17958V22.4103C2.99996 22.4958 3.01865 22.5732 3.05604 22.6427C3.09346 22.7121 3.14421 22.7735 3.20829 22.827L13 30.1667ZM11.25 20.4231L20.0897 11.5834L18.3333 9.77571L11.25 16.859L7.71792 13.327L5.91025 15.0834L11.25 20.4231Z" fill="#4974E7"/>
</svg>
