<svg width="67" height="67" viewBox="0 0 67 67" fill="none" xmlns="http://www.w3.org/2000/svg">
<g filter="url(#filter0_d_246_132)">
<circle cx="33.5" cy="29.5" r="29.5" fill="#53B6DA"/>
</g>
<mask id="mask0_246_132" style="mask-type:alpha" maskUnits="userSpaceOnUse" x="18" y="14" width="31" height="31">
<rect x="18" y="14" width="31" height="31" fill="#F2F7FF"/>
</mask>
<g mask="url(#mask0_246_132)">
<path d="M33.1112 37.2497C31.0445 37.142 29.3008 36.3455 27.8799 34.8601C26.4591 33.3747 25.7487 31.5879 25.7487 29.4997C25.7487 27.3469 26.5022 25.517 28.0091 24.0101C29.5161 22.5031 31.3459 21.7497 33.4987 21.7497C35.5869 21.7497 37.3737 22.4601 38.8591 23.8809C40.3445 25.3018 41.1411 27.0455 41.2487 29.1122L38.5362 28.3049C38.2563 27.1424 37.6536 26.1898 36.7279 25.4471C35.8022 24.7044 34.7258 24.333 33.4987 24.333C32.0779 24.333 30.8615 24.8389 29.8497 25.8507C28.8379 26.8625 28.332 28.0788 28.332 29.4997C28.332 30.7268 28.7034 31.8031 29.4461 32.7288C30.1888 33.6545 31.1414 34.2573 32.3039 34.5372L33.1112 37.2497ZM34.6612 42.3518C34.4674 42.3948 34.2737 42.4163 34.0799 42.4163H33.4987C31.7119 42.4163 30.0327 42.0773 28.4612 41.3992C26.8897 40.721 25.5227 39.8007 24.3602 38.6382C23.1977 37.4757 22.2773 36.1087 21.5992 34.5372C20.9211 32.9656 20.582 31.2865 20.582 29.4997C20.582 27.7129 20.9211 26.0337 21.5992 24.4622C22.2773 22.8906 23.1977 21.5236 24.3602 20.3611C25.5227 19.1986 26.8897 18.2783 28.4612 17.6002C30.0327 16.9221 31.7119 16.583 33.4987 16.583C35.2855 16.583 36.9647 16.9221 38.5362 17.6002C40.1077 18.2783 41.4747 19.1986 42.6372 20.3611C43.7997 21.5236 44.7201 22.8906 45.3982 24.4622C46.0763 26.0337 46.4154 27.7129 46.4154 29.4997V30.0809C46.4154 30.2747 46.3938 30.4684 46.3508 30.6622L43.832 29.8872V29.4997C43.832 26.615 42.831 24.1716 40.8289 22.1695C38.8268 20.1674 36.3834 19.1663 33.4987 19.1663C30.614 19.1663 28.1706 20.1674 26.1685 22.1695C24.1664 24.1716 23.1654 26.615 23.1654 29.4997C23.1654 32.3844 24.1664 34.8278 26.1685 36.8299C28.1706 38.832 30.614 39.833 33.4987 39.833H33.8862L34.6612 42.3518ZM44.5102 43.0622L38.9883 37.5403L37.3737 42.4163L33.4987 29.4997L46.4154 33.3747L41.5393 34.9893L47.0612 40.5111L44.5102 43.0622Z" fill="#F2F7FF"/>
</g>
<defs>
<filter id="filter0_d_246_132" x="0" y="0" width="67" height="67" filterUnits="userSpaceOnUse" color-interpolation-filters="sRGB">
<feFlood flood-opacity="0" result="BackgroundImageFix"/>
<feColorMatrix in="SourceAlpha" type="matrix" values="0 0 0 0 0 0 0 0 0 0 0 0 0 0 0 0 0 0 127 0" result="hardAlpha"/>
<feOffset dy="4"/>
<feGaussianBlur stdDeviation="2"/>
<feComposite in2="hardAlpha" operator="out"/>
<feColorMatrix type="matrix" values="0 0 0 0 0 0 0 0 0 0 0 0 0 0 0 0 0 0 0.25 0"/>
<feBlend mode="normal" in2="BackgroundImageFix" result="effect1_dropShadow_246_132"/>
<feBlend mode="normal" in="SourceGraphic" in2="effect1_dropShadow_246_132" result="shape"/>
</filter>
</defs>
</svg>
