<svg width="33" height="33" viewBox="0 0 33 33" xmlns="http://www.w3.org/2000/svg">
    <rect width="33" height="33" rx="3"/>
    <path d="M25.4586 18.4297V24.7503C25.4586 24.9056 25.3255 25.0386 25.1703 25.0386H21.9102C21.755 25.0386 21.6219 24.9056 21.6219 24.7503V18.8733C21.6219 17.3209 21.0675 16.2564 19.6703 16.2564C18.6058 16.2564 17.9848 16.966 17.6965 17.6535C17.5856 17.8975 17.5634 18.2523 17.5634 18.585V24.7503C17.5634 24.9056 17.4304 25.0386 17.2751 25.0386H14.0372C13.882 25.0386 13.7489 24.9056 13.7489 24.7503C13.7489 23.1757 13.7933 15.5689 13.7489 13.7947C13.7489 13.6394 13.882 13.5064 14.0372 13.5064H17.2973C17.4526 13.5064 17.5856 13.6394 17.5856 13.7947V15.1475C17.5856 15.1697 17.5634 15.1697 17.5634 15.1918H17.5856V15.1475C18.0957 14.3713 19.005 13.2402 21.0453 13.2402C23.5735 13.2402 25.4586 14.9035 25.4586 18.4297ZM8.07151 25.0608H11.3316C11.4868 25.0608 11.6199 24.9277 11.6199 24.7725V13.7947C11.6199 13.6394 11.4868 13.5064 11.3316 13.5064H8.07151C7.91627 13.5064 7.7832 13.6394 7.7832 13.7947V24.7725C7.80538 24.9277 7.91627 25.0608 8.07151 25.0608Z"
          />
    <path d="M9.60156 12.0645C10.7406 12.0645 11.6641 11.141 11.6641 10.002C11.6641 8.86287 10.7406 7.93945 9.60156 7.93945C8.46248 7.93945 7.53906 8.86287 7.53906 10.002C7.53906 11.141 8.46248 12.0645 9.60156 12.0645Z"
          />
</svg>
