<svg width="20" height="20" viewBox="0 0 20 20" fill="none" xmlns="http://www.w3.org/2000/svg">
<path d="M10 20.0002C8.61667 20.0002 7.31667 19.7377 6.1 19.2127C4.88333 18.6877 3.825 17.9752 2.925 17.0752C2.025 16.1752 1.3125 15.1169 0.7875 13.9002C0.2625 12.6836 0 11.3836 0 10.0002C0 8.61691 0.2625 7.31691 0.7875 6.10024C1.3125 4.88358 2.025 3.82524 2.925 2.92524C3.825 2.02524 4.88333 1.31274 6.1 0.787744C7.31667 0.262744 8.61667 0.000244141 10 0.000244141C11.0833 0.000244141 12.1083 0.158577 13.075 0.475244C14.0417 0.791911 14.9333 1.23358 15.75 1.80024L14.3 3.27524C13.6667 2.87524 12.9917 2.56274 12.275 2.33774C11.5583 2.11274 10.8 2.00024 10 2.00024C7.78333 2.00024 5.89583 2.77941 4.3375 4.33774C2.77917 5.89608 2 7.78358 2 10.0002C2 12.2169 2.77917 14.1044 4.3375 15.6627C5.89583 17.2211 7.78333 18.0002 10 18.0002C12.2167 18.0002 14.1042 17.2211 15.6625 15.6627C17.2208 14.1044 18 12.2169 18 10.0002C18 9.70024 17.9833 9.40024 17.95 9.10024C17.9167 8.80024 17.8667 8.50858 17.8 8.22524L19.425 6.60024C19.6083 7.13358 19.75 7.68358 19.85 8.25024C19.95 8.81691 20 9.40024 20 10.0002C20 11.3836 19.7375 12.6836 19.2125 13.9002C18.6875 15.1169 17.975 16.1752 17.075 17.0752C16.175 17.9752 15.1167 18.6877 13.9 19.2127C12.6833 19.7377 11.3833 20.0002 10 20.0002ZM8.6 14.6002L4.35 10.3502L5.75 8.95024L8.6 11.8002L18.6 1.77524L20 3.17524L8.6 14.6002Z" fill="#53B6DA"/>
</svg>
