<svg width="939" height="808" viewBox="0 0 939 808" fill="none" xmlns="http://www.w3.org/2000/svg">
    <g opacity="0.7" clip-path="url(#clip0_246_67)">
        <path d="M904.058 399.98L527.506 766.879C521.057 773.162 510.601 773.162 504.152 766.879L127.6 399.98C121.152 393.697 121.152 383.508 127.6 377.225L504.152 10.3266C510.601 4.04349 521.057 4.04349 527.506 10.3266L904.058 377.225C910.507 383.508 910.507 393.697 904.058 399.98Z" fill="white"/>
        <path d="M900.91 398.016L519.736 769.417C514.561 774.46 506.168 774.46 500.992 769.417L119.842 398.016C114.667 392.973 114.667 384.795 119.842 379.753L501.004 8.36247C506.179 3.31993 514.573 3.31993 519.748 8.36247L900.922 379.764C906.097 384.807 906.097 392.985 900.922 398.027L900.91 398.016Z" fill="url(#paint0_linear_246_67)"/>
        <path d="M788.093 396.189L411.541 763.088C405.093 769.371 394.636 769.371 388.188 763.088L11.6351 396.189C5.18673 389.906 5.18673 379.718 11.6351 373.435L388.188 6.53603C394.636 0.252964 405.093 0.252964 411.541 6.53603L788.093 373.435C794.542 379.718 794.542 389.906 788.093 396.189Z" fill="white"/>
        <path d="M784.957 394.225L403.783 765.627C398.608 770.669 390.215 770.669 385.039 765.627L3.8775 394.225C-1.29771 389.183 -1.29771 381.005 3.8775 375.962L385.051 4.57194C390.226 -0.470594 398.62 -0.470594 403.795 4.57194L784.969 375.973C790.144 381.016 790.144 389.194 784.969 394.237L784.957 394.225Z" fill="url(#paint1_linear_246_67)"/>
    </g>
    <defs>
        <linearGradient id="paint0_linear_246_67" x1="845.833" y1="281.188" x2="190.389" y2="502.83" gradientUnits="userSpaceOnUse">
            <stop stop-color="#FEFEFE"/>
            <stop offset="1" stop-color="#53B6DA" stop-opacity="0.04"/>
        </linearGradient>
        <linearGradient id="paint1_linear_246_67" x1="729.88" y1="277.397" x2="74.4244" y2="499.051" gradientUnits="userSpaceOnUse">
            <stop stop-color="#FEFEFE"/>
            <stop offset="1" stop-color="#7BCBE9"/>
        </linearGradient>
        <clipPath id="clip0_246_67">
            <rect width="939" height="808" fill="white"/>
        </clipPath>
    </defs>
</svg>
