<svg width="16" height="15" viewBox="0 0 16 15" fill="none" xmlns="http://www.w3.org/2000/svg">
<path d="M14.8148 8.09184L1.55549 14.7313C1.45026 14.7833 1.33135 14.8009 1.21558 14.7816C1.0998 14.7623 0.993016 14.7072 0.910309 14.6239C0.82793 14.5339 0.777215 14.4194 0.765883 14.2979C0.754551 14.1764 0.783224 14.0546 0.847535 13.9509L4.74031 7.59647L0.818626 1.2276C0.754921 1.12461 0.726328 1.00374 0.737136 0.883123C0.747943 0.762508 0.797569 0.648648 0.878568 0.558626C0.960464 0.467863 1.06982 0.406401 1.18993 0.383628C1.31004 0.360854 1.4343 0.378021 1.54373 0.432506L14.8196 7.0903C14.9124 7.13723 14.9902 7.20908 15.0445 7.29779C15.0987 7.3865 15.1272 7.48857 15.1267 7.59255C15.1262 7.69653 15.0968 7.79832 15.0417 7.88651C14.9866 7.9747 14.908 8.0458 14.8148 8.09184Z" fill="#53B6DA"/>
</svg>
