<svg width="386" height="816" viewBox="0 0 386 816" fill="none" xmlns="http://www.w3.org/2000/svg">
<g opacity="0.7" clip-path="url(#clip0_246_77)">
<path d="M36.8743 374.146L434.28 771.468C441.085 778.272 452.121 778.272 458.926 771.468L856.331 374.146C863.137 367.342 863.137 356.309 856.331 349.505L458.926 -47.8179C452.121 -54.6219 441.085 -54.622 434.28 -47.8179L36.8743 349.505C30.0688 356.309 30.0688 367.342 36.8743 374.146Z" fill="white"/>
<path d="M40.1972 372.019L442.479 774.218C447.941 779.678 456.8 779.678 462.261 774.218L864.519 372.019C869.981 366.559 869.981 357.702 864.519 352.241L462.249 -49.9446C456.787 -55.4052 447.929 -55.4052 442.467 -49.9446L40.1847 352.254C34.7229 357.715 34.7229 366.571 40.1847 372.032L40.1972 372.019Z" fill="url(#paint0_linear_246_77)"/>
<path d="M159.261 370.041L556.666 767.364C563.472 774.168 574.507 774.168 581.313 767.364L978.718 370.042C985.524 363.237 985.524 352.204 978.718 345.4L581.313 -51.9224C574.507 -58.7264 563.472 -58.7264 556.666 -51.9224L159.261 345.4C152.456 352.204 152.456 363.237 159.261 370.041Z" fill="white"/>
<path d="M162.571 367.915L564.854 770.113C570.316 775.574 579.174 775.574 584.636 770.113L986.906 367.915C992.367 362.454 992.367 353.598 986.906 348.137L584.623 -54.0491C579.161 -59.5097 570.303 -59.5097 564.841 -54.0491L162.559 348.149C157.097 353.61 157.097 362.467 162.559 367.927L162.571 367.915Z" fill="url(#paint1_linear_246_77)"/>
</g>
<defs>
<linearGradient id="paint0_linear_246_77" x1="98.3237" y1="245.503" x2="793.649" y2="474.652" gradientUnits="userSpaceOnUse">
<stop stop-color="#FEFEFE"/>
<stop offset="1" stop-color="#53B6DA" stop-opacity="0.67"/>
</linearGradient>
<linearGradient id="paint1_linear_246_77" x1="220.698" y1="241.399" x2="916.035" y2="470.559" gradientUnits="userSpaceOnUse">
<stop stop-color="#FEFEFE"/>
<stop offset="1" stop-color="#C4C9CF"/>
</linearGradient>
<clipPath id="clip0_246_77">
<rect width="386" height="875" fill="white" transform="matrix(-1 -8.74228e-08 -8.74228e-08 1 386 -59)"/>
</clipPath>
</defs>
</svg>
